<svg xmlns="http://www.w3.org/2000/svg" viewBox="0 0 32 32" fill="#8B4513">
  <path d="M6 8c0-2.2 1.8-4 4-4h10c2.2 0 4 1.8 4 4v12c0 2.2-1.8 4-4 4H10c-2.2 0-4-1.8-4-4V8z"/>
  <path d="M24 10h3c1.1 0 2 .9 2 2v4c0 1.1-.9 2-2 2h-3" fill="none" stroke="#8B4513" stroke-width="2"/>
  <rect x="8" y="6" width="14" height="2" fill="#D2691E" rx="1"/>
  <circle cx="12" cy="14" r="1" fill="#8B4513" opacity="0.6"/>
  <circle cx="16" cy="12" r="1" fill="#8B4513" opacity="0.6"/>
  <circle cx="18" cy="16" r="1" fill="#8B4513" opacity="0.6"/>
  <path d="M8 26h12c1.1 0 2 .9 2 2s-.9 2-2 2H8c-1.1 0-2-.9-2-2s.9-2 2-2z" fill="#654321"/>
</svg>